<?xml version="1.0" encoding="utf-8"?>
<!-- Generator: Adobe Illustrator 26.1.0, SVG Export Plug-In . SVG Version: 6.00 Build 0)  -->
<svg version="1.1" id="Calque_1" xmlns="http://www.w3.org/2000/svg" xmlns:xlink="http://www.w3.org/1999/xlink" x="0px" y="0px"
	 viewBox="0 0 385.3 42.8" style="enable-background:new 0 0 385.3 42.8;" xml:space="preserve">
<style type="text/css">
	.st0{fill:#FFFFFF;}
</style>
<g>
	<path class="st0" d="M0,42.8V0h42.8v42.8H0z M30.6,36.7l6.1-6.1V6.1h-6.1v24.5h-6.1V12.2h-6.1v18.3h-6.1V6.1H6.1v24.5l6.1,6.1H30.6
		z"/>
	<path class="st0" d="M48.9,42.8V0h42.8v42.8H48.9z M85.6,36.7V6.1H55v30.6h6.1V24.5h18.3v12.2H85.6z M61.2,18.3v-6.1h18.3v6.1H61.2
		z"/>
	<path class="st0" d="M97.9,42.8V0h42.8v42.8H97.9z M128.4,36.7l6.1-6.1V6.1h-6.1v24.5h-6.1V12.2h-6.1v18.3h-6.1V6.1H104v24.5
		l6.1,6.1H128.4z"/>
	<path class="st0" d="M146.8,42.8V0h42.8v42.8H146.8z M183.5,36.7V6.1h-30.6v30.6h6.1V24.5h18.3v12.2H183.5z M159,18.3v-6.1h18.3
		v6.1H159z"/>
	<path class="st0" d="M195.7,42.8V0h42.8v42.8H195.7z M226.3,36.7l6.1-6.1V6.1h-6.1v24.5h-6.1V12.2h-6.1v18.3h-6.1V6.1h-6.1v24.5
		l6.1,6.1H226.3z"/>
	<path class="st0" d="M244.6,42.8V0h42.8v42.8H244.6z M281.3,36.7V6.1h-30.6v30.6H281.3z M256.9,30.6V12.2h18.3v18.3H256.9z"/>
	<path class="st0" d="M293.6,42.8V0h42.8v42.8H293.6z M330.3,36.7V6.1h-30.6v30.6H330.3z M305.8,30.6V12.2h18.3v18.3H305.8z"/>
	<path class="st0" d="M342.5,42.8V0h42.8v42.8H342.5z M373.1,36.7l6.1-6.1V12.2l-6.1-6.1h-24.5v30.6H373.1z M354.7,30.6V12.2h18.3
		v18.3H354.7z"/>
</g>
</svg>
